<?xml version="1.0" encoding="UTF-8" standalone="no"?>
<svg
  width="512"
  height="512"
  viewBox="0 0 512 512"
  version="1.1"
  xmlns="http://www.w3.org/2000/svg"
  xmlns:svg="http://www.w3.org/2000/svg">
  <g id="logo">
    <path
      id="face"
      style="fill:#82ad5a"
      d="M 149.96094 0 L 0 149.96094 L 0 362.03906 L 149.96094 512 L 256 512 L 362.03906 512 L 512 362.03906 L 512 149.96094 L 362.03906 0 L 256 0 L 149.96094 0 z " />
    <path
      id="eyeLeft"
      d="m 194.97337,198.80511 13.24112,24.89686 -41.252,24.67046 -26.85017,-17.23669 0.58035,-33.40198 40.4981,-24.20655 z" />
    <path
      id="beak"
      style="fill:#ffffff"
      d="M 256 250.75391 L 205.38867 250.81445 L 256 438.45117 L 306.61133 250.81445 L 256 250.75391 z " />
    <path
      id="eyeRight"
      d="m 317.02663,198.80511 -13.24112,24.89686 41.252,24.67046 26.85017,-17.23669 -0.58035,-33.40198 -40.4981,-24.20655 z" />
    <path
      id="forehead"
      style="fill:#6d914b"
      d="M 149.96094 0 L 87.492188 62.46875 L 205.38867 250.81445 L 256 250.75391 L 306.61133 250.81445 L 424.50781 62.46875 L 362.03906 0 L 256 0 L 149.96094 0 z " />
  </g>
</svg>